<?xml version="1.0" encoding="UTF-8" standalone="no"?>
<!DOCTYPE svg PUBLIC "-//W3C//DTD SVG 1.1//EN"
 "http://www.w3.org/Graphics/SVG/1.1/DTD/svg11.dtd">
<!-- Generated by graphviz version 8.0.1 (20230327.1645)
 -->
<!-- Title: dependency&#45;cruiser output Pages: 1 -->
<svg width="495pt" height="282pt"
 viewBox="0.00 0.00 495.00 282.00" xmlns="http://www.w3.org/2000/svg" xmlns:xlink="http://www.w3.org/1999/xlink">
<g id="graph0" class="graph" transform="scale(1 1) rotate(0) translate(4 278)">
<title>dependency&#45;cruiser output</title>
<polygon fill="white" stroke="none" points="-4,4 -4,-278 491,-278 491,4 -4,4"/>
<g id="clust1" class="cluster">
<title>cluster_app</title>
<path fill="#ffffff" stroke="black" stroke-width="2" d="M20,-56C20,-56 467,-56 467,-56 473,-56 479,-62 479,-68 479,-68 479,-254 479,-254 479,-260 473,-266 467,-266 467,-266 20,-266 20,-266 14,-266 8,-260 8,-254 8,-254 8,-68 8,-68 8,-62 14,-56 20,-56"/>
<text text-anchor="middle" x="243.5" y="-254.8" font-family="Helvetica,sans-Serif" font-weight="bold" font-size="9.00">app</text>
</g>
<g id="clust2" class="cluster">
<title>cluster_app/middleware</title>
<path fill="#ffffff" stroke="black" stroke-width="2" d="M174,-64C174,-64 243,-64 243,-64 249,-64 255,-70 255,-76 255,-76 255,-104 255,-104 255,-110 249,-116 243,-116 243,-116 174,-116 174,-116 168,-116 162,-110 162,-104 162,-104 162,-76 162,-76 162,-70 168,-64 174,-64"/>
<text text-anchor="middle" x="208.5" y="-104.8" font-family="Helvetica,sans-Serif" font-weight="bold" font-size="9.00">middleware</text>
</g>
<g id="clust3" class="cluster">
<title>cluster_app/tests</title>
<path fill="#ffffff" stroke="black" stroke-width="2" d="M28,-156C28,-156 80,-156 80,-156 86,-156 92,-162 92,-168 92,-168 92,-196 92,-196 92,-202 86,-208 80,-208 80,-208 28,-208 28,-208 22,-208 16,-202 16,-196 16,-196 16,-168 16,-168 16,-162 22,-156 28,-156"/>
<text text-anchor="middle" x="54" y="-196.8" font-family="Helvetica,sans-Serif" font-weight="bold" font-size="9.00">tests</text>
</g>
<g id="clust4" class="cluster">
<title>cluster_app/user</title>
<path fill="#ffffff" stroke="black" stroke-width="2" d="M185.5,-134C185.5,-134 323,-134 323,-134 329,-134 335,-140 335,-146 335,-146 335,-204 335,-204 335,-210 329,-216 323,-216 323,-216 185.5,-216 185.5,-216 179.5,-216 173.5,-210 173.5,-204 173.5,-204 173.5,-146 173.5,-146 173.5,-140 179.5,-134 185.5,-134"/>
<text text-anchor="middle" x="254.25" y="-204.8" font-family="Helvetica,sans-Serif" font-weight="bold" font-size="9.00">user</text>
</g>
<!-- app/config.js -->
<g id="node1" class="node">
<title>app/config.js</title>
<g id="a_node1"><a xlink:href="app/config.js" xlink:title="config.js">
<path fill="#ffffcc" stroke="black" d="M465,-179C465,-179 423,-179 423,-179 420,-179 417,-176 417,-173 417,-173 417,-167 417,-167 417,-164 420,-161 423,-161 423,-161 465,-161 465,-161 468,-161 471,-164 471,-167 471,-167 471,-173 471,-173 471,-176 468,-179 465,-179"/>
<text text-anchor="start" x="427" y="-167.8" font-family="Helvetica,sans-Serif" font-size="9.00">config.js</text>
</a>
</g>
</g>
<!-- app/db&#45;client.js -->
<g id="node2" class="node">
<title>app/db&#45;client.js</title>
<g id="a_node2"><a xlink:href="app/db-client.js" xlink:title="db&#45;client.js">
<path fill="#ffffcc" stroke="black" d="M398,-219C398,-219 349,-219 349,-219 346,-219 343,-216 343,-213 343,-213 343,-207 343,-207 343,-204 346,-201 349,-201 349,-201 398,-201 398,-201 401,-201 404,-204 404,-207 404,-207 404,-213 404,-213 404,-216 401,-219 398,-219"/>
<text text-anchor="start" x="351" y="-207.8" font-family="Helvetica,sans-Serif" font-size="9.00">db&#45;client.js</text>
</a>
</g>
</g>
<!-- app/index.js -->
<g id="node3" class="node">
<title>app/index.js</title>
<g id="a_node3"><a xlink:href="app/index.js" xlink:title="index.js">
<path fill="#ffffcc" stroke="black" d="M75,-141C75,-141 33,-141 33,-141 30,-141 27,-138 27,-135 27,-135 27,-129 27,-129 27,-126 30,-123 33,-123 33,-123 75,-123 75,-123 78,-123 81,-126 81,-129 81,-129 81,-135 81,-135 81,-138 78,-141 75,-141"/>
<text text-anchor="start" x="38" y="-129.8" font-family="Helvetica,sans-Serif" font-size="9.00">index.js</text>
</a>
</g>
</g>
<!-- app/server.js -->
<g id="node4" class="node">
<title>app/server.js</title>
<g id="a_node4"><a xlink:href="app/server.js" xlink:title="server.js">
<path fill="#ffffcc" stroke="black" d="M148,-141C148,-141 106,-141 106,-141 103,-141 100,-138 100,-135 100,-135 100,-129 100,-129 100,-126 103,-123 106,-123 106,-123 148,-123 148,-123 151,-123 154,-126 154,-129 154,-129 154,-135 154,-135 154,-138 151,-141 148,-141"/>
<text text-anchor="start" x="109.5" y="-129.8" font-family="Helvetica,sans-Serif" font-size="9.00">server.js</text>
</a>
</g>
</g>
<!-- app/index.js&#45;&gt;app/server.js -->
<g id="edge1" class="edge">
<title>app/index.js&#45;&gt;app/server.js</title>
<path fill="none" stroke="#000000" stroke-width="2" stroke-opacity="0.200000" d="M81.44,-132C84.53,-132 87.72,-132 90.9,-132"/>
<polygon fill="#000000" fill-opacity="0.200000" stroke="#000000" stroke-width="2" stroke-opacity="0.200000" points="90.78,-134.1 96.78,-132 90.78,-129.9 90.78,-134.1"/>
</g>
<!-- app/server.js&#45;&gt;app/config.js -->
<g id="edge2" class="edge">
<title>app/server.js&#45;&gt;app/config.js</title>
<path fill="none" stroke="#000000" stroke-width="2" stroke-opacity="0.200000" d="M154.26,-128.95C193.68,-124.91 270.41,-119.16 335,-127 366.35,-130.81 375.09,-131.27 404,-144 410.91,-147.04 417.94,-151.3 424.09,-155.48"/>
<polygon fill="#000000" fill-opacity="0.200000" stroke="#000000" stroke-width="2" stroke-opacity="0.200000" points="423.23,-157.88 429.33,-159.66 425.67,-154.46 423.23,-157.88"/>
</g>
<!-- app/middleware/handle&#45;error.js -->
<g id="node5" class="node">
<title>app/middleware/handle&#45;error.js</title>
<g id="a_node5"><a xlink:href="app/middleware/handle-error.js" xlink:title="handle&#45;error.js">
<path fill="#ffffcc" stroke="black" d="M241,-90C241,-90 176,-90 176,-90 173,-90 170,-87 170,-84 170,-84 170,-78 170,-78 170,-75 173,-72 176,-72 176,-72 241,-72 241,-72 244,-72 247,-75 247,-78 247,-78 247,-84 247,-84 247,-87 244,-90 241,-90"/>
<text text-anchor="start" x="178" y="-78.8" font-family="Helvetica,sans-Serif" font-size="9.00">handle&#45;error.js</text>
</a>
</g>
</g>
<!-- app/server.js&#45;&gt;app/middleware/handle&#45;error.js -->
<g id="edge3" class="edge">
<title>app/server.js&#45;&gt;app/middleware/handle&#45;error.js</title>
<path fill="none" stroke="#000000" stroke-width="2" stroke-opacity="0.200000" d="M133.92,-122.82C139.17,-115.31 147.52,-104.74 162.29,-94.63"/>
<polygon fill="#000000" fill-opacity="0.200000" stroke="#000000" stroke-width="2" stroke-opacity="0.200000" points="163.59,-96.02 167.54,-91.03 161.34,-92.47 163.59,-96.02"/>
</g>
<!-- app/user/routes.js -->
<g id="node6" class="node">
<title>app/user/routes.js</title>
<g id="a_node6"><a xlink:href="app/user/routes.js" xlink:title="routes.js">
<path fill="#ffffcc" stroke="black" d="M229.5,-160C229.5,-160 187.5,-160 187.5,-160 184.5,-160 181.5,-157 181.5,-154 181.5,-154 181.5,-148 181.5,-148 181.5,-145 184.5,-142 187.5,-142 187.5,-142 229.5,-142 229.5,-142 232.5,-142 235.5,-145 235.5,-148 235.5,-148 235.5,-154 235.5,-154 235.5,-157 232.5,-160 229.5,-160"/>
<text text-anchor="start" x="191" y="-148.8" font-family="Helvetica,sans-Serif" font-size="9.00">routes.js</text>
</a>
</g>
</g>
<!-- app/server.js&#45;&gt;app/user/routes.js -->
<g id="edge4" class="edge">
<title>app/server.js&#45;&gt;app/user/routes.js</title>
<path fill="none" stroke="#000000" stroke-width="2" stroke-opacity="0.200000" d="M154.47,-138.33C160.24,-139.7 166.43,-141.18 172.47,-142.63"/>
<polygon fill="#000000" fill-opacity="0.200000" stroke="#000000" stroke-width="2" stroke-opacity="0.200000" points="172.82,-145.35 179.14,-144.7 173.8,-141.26 172.82,-145.35"/>
</g>
<!-- app/user/controller.js -->
<g id="node8" class="node">
<title>app/user/controller.js</title>
<g id="a_node8"><a xlink:href="app/user/controller.js" xlink:title="controller.js">
<path fill="#ffffcc" stroke="black" d="M321,-190C321,-190 269,-190 269,-190 266,-190 263,-187 263,-184 263,-184 263,-178 263,-178 263,-175 266,-172 269,-172 269,-172 321,-172 321,-172 324,-172 327,-175 327,-178 327,-178 327,-184 327,-184 327,-187 324,-190 321,-190"/>
<text text-anchor="start" x="271" y="-178.8" font-family="Helvetica,sans-Serif" font-size="9.00">controller.js</text>
</a>
</g>
</g>
<!-- app/user/routes.js&#45;&gt;app/user/controller.js -->
<g id="edge16" class="edge">
<title>app/user/routes.js&#45;&gt;app/user/controller.js</title>
<path fill="none" stroke="#000000" stroke-width="2" stroke-opacity="0.200000" d="M235.77,-160.33C243.17,-162.96 251.34,-165.85 259.16,-168.63"/>
<polygon fill="#000000" fill-opacity="0.200000" stroke="#000000" stroke-width="2" stroke-opacity="0.200000" points="259.1,-170.55 265.45,-170.57 260.5,-166.59 259.1,-170.55"/>
</g>
<!-- app/user/model.js -->
<g id="node9" class="node">
<title>app/user/model.js</title>
<g id="a_node9"><a xlink:href="app/user/model.js" xlink:title="model.js">
<path fill="#ffffcc" stroke="black" d="M316,-160C316,-160 274,-160 274,-160 271,-160 268,-157 268,-154 268,-154 268,-148 268,-148 268,-145 271,-142 274,-142 274,-142 316,-142 316,-142 319,-142 322,-145 322,-148 322,-148 322,-154 322,-154 322,-157 319,-160 316,-160"/>
<text text-anchor="start" x="277.5" y="-148.8" font-family="Helvetica,sans-Serif" font-size="9.00">model.js</text>
</a>
</g>
</g>
<!-- app/user/routes.js&#45;&gt;app/user/model.js -->
<g id="edge17" class="edge">
<title>app/user/routes.js&#45;&gt;app/user/model.js</title>
<path fill="none" stroke="#000000" stroke-width="2" stroke-opacity="0.200000" d="M235.77,-151C243.09,-151 251.15,-151 258.88,-151"/>
<polygon fill="#000000" fill-opacity="0.200000" stroke="#000000" stroke-width="2" stroke-opacity="0.200000" points="258.74,-153.1 264.74,-151 258.74,-148.9 258.74,-153.1"/>
</g>
<!-- app/utils.js -->
<g id="node12" class="node">
<title>app/utils.js</title>
<g id="a_node12"><a xlink:href="app/utils.js" xlink:title="utils.js">
<path fill="#ffffcc" stroke="black" d="M394.5,-168C394.5,-168 352.5,-168 352.5,-168 349.5,-168 346.5,-165 346.5,-162 346.5,-162 346.5,-156 346.5,-156 346.5,-153 349.5,-150 352.5,-150 352.5,-150 394.5,-150 394.5,-150 397.5,-150 400.5,-153 400.5,-156 400.5,-156 400.5,-162 400.5,-162 400.5,-165 397.5,-168 394.5,-168"/>
<text text-anchor="start" x="360.5" y="-156.8" font-family="Helvetica,sans-Serif" font-size="9.00">utils.js</text>
</a>
</g>
</g>
<!-- app/user/routes.js&#45;&gt;app/utils.js -->
<g id="edge15" class="edge">
<title>app/user/routes.js&#45;&gt;app/utils.js</title>
<path fill="none" stroke="#000000" stroke-width="2" stroke-opacity="0.200000" d="M235.71,-143.48C248.51,-139.84 261.49,-136.21 263,-136 294.7,-131.64 304.2,-127.31 335,-136 341.57,-137.85 348.12,-141.22 353.87,-144.81"/>
<polygon fill="#000000" fill-opacity="0.200000" stroke="#000000" stroke-width="2" stroke-opacity="0.200000" points="352.99,-147.1 359.13,-148.73 355.34,-143.63 352.99,-147.1"/>
</g>
<!-- app/tests/user.test.js -->
<g id="node7" class="node">
<title>app/tests/user.test.js</title>
<g id="a_node7"><a xlink:href="app/tests/user.test.js" xlink:title="user.test.js">
<path fill="#ffffcc" stroke="black" d="M78,-182C78,-182 30,-182 30,-182 27,-182 24,-179 24,-176 24,-176 24,-170 24,-170 24,-167 27,-164 30,-164 30,-164 78,-164 78,-164 81,-164 84,-167 84,-170 84,-170 84,-176 84,-176 84,-179 81,-182 78,-182"/>
<text text-anchor="start" x="32" y="-170.8" font-family="Helvetica,sans-Serif" font-size="9.00">user.test.js</text>
</a>
</g>
</g>
<!-- app/tests/user.test.js&#45;&gt;app/config.js -->
<g id="edge5" class="edge">
<title>app/tests/user.test.js&#45;&gt;app/config.js</title>
<path fill="none" stroke="#000000" stroke-width="2" stroke-opacity="0.200000" d="M63.43,-182.18C71.88,-190.83 85.65,-203.57 100,-211 143.84,-233.71 158.13,-239 207.5,-239 207.5,-239 207.5,-239 296,-239 344.4,-239 362.52,-249.95 404,-225 418.51,-216.28 429.07,-199.85 435.52,-187.22"/>
<polygon fill="#000000" fill-opacity="0.200000" stroke="#000000" stroke-width="2" stroke-opacity="0.200000" points="437.64,-187.54 438.32,-181.22 433.85,-185.73 437.64,-187.54"/>
</g>
<!-- app/tests/user.test.js&#45;&gt;app/db&#45;client.js -->
<g id="edge6" class="edge">
<title>app/tests/user.test.js&#45;&gt;app/db&#45;client.js</title>
<path fill="none" stroke="#000000" stroke-width="2" stroke-opacity="0.200000" d="M71,-182.34C91.34,-193.63 127.94,-211.99 162,-219 234.66,-233.96 257.08,-228.46 334.09,-218.88"/>
<polygon fill="#000000" fill-opacity="0.200000" stroke="#000000" stroke-width="2" stroke-opacity="0.200000" points="334.03,-220.63 339.73,-217.81 333.52,-216.46 334.03,-220.63"/>
</g>
<!-- app/tests/user.test.js&#45;&gt;app/server.js -->
<g id="edge7" class="edge">
<title>app/tests/user.test.js&#45;&gt;app/server.js</title>
<path fill="none" stroke="#000000" stroke-width="2" stroke-opacity="0.200000" d="M84.12,-163.88C86.84,-162.7 89.51,-161.4 92,-160 98.23,-156.49 104.44,-151.81 109.82,-147.28"/>
<polygon fill="#000000" fill-opacity="0.200000" stroke="#000000" stroke-width="2" stroke-opacity="0.200000" points="111.46,-148.87 114.56,-143.32 108.68,-145.72 111.46,-148.87"/>
</g>
<!-- app/tests/user.test.js&#45;&gt;app/user/controller.js -->
<g id="edge8" class="edge">
<title>app/tests/user.test.js&#45;&gt;app/user/controller.js</title>
<path fill="none" stroke="#000000" stroke-width="2" stroke-opacity="0.200000" d="M84.03,-175.87C89.34,-176.31 94.83,-176.72 100,-177 153.1,-179.9 214.47,-180.75 253.73,-180.97"/>
<polygon fill="#000000" fill-opacity="0.200000" stroke="#000000" stroke-width="2" stroke-opacity="0.200000" points="253.72,-183.08 259.73,-181.01 253.74,-178.88 253.72,-183.08"/>
</g>
<!-- app/tests/user.test.js&#45;&gt;app/user/model.js -->
<g id="edge9" class="edge">
<title>app/tests/user.test.js&#45;&gt;app/user/model.js</title>
<path fill="none" stroke="#000000" stroke-width="2" stroke-opacity="0.200000" d="M84.17,-174.97C123.43,-176.95 195.25,-178.18 255,-166 258.25,-165.34 261.58,-164.43 264.86,-163.4"/>
<polygon fill="#000000" fill-opacity="0.200000" stroke="#000000" stroke-width="2" stroke-opacity="0.200000" points="266.37,-165.39 271.33,-161.41 264.98,-161.42 266.37,-165.39"/>
</g>
<!-- assert -->
<g id="node10" class="node">
<title>assert</title>
<g id="a_node10"><a xlink:title="assert">
<path fill="#ffffcc" stroke="grey" d="M148,-48C148,-48 106,-48 106,-48 103,-48 100,-45 100,-42 100,-42 100,-36 100,-36 100,-33 103,-30 106,-30 106,-30 148,-30 148,-30 151,-30 154,-33 154,-36 154,-36 154,-42 154,-42 154,-45 151,-48 148,-48"/>
<text text-anchor="middle" x="127" y="-36.8" font-family="Helvetica,sans-Serif" font-size="9.00" fill="grey">assert</text>
</a>
</g>
</g>
<!-- app/tests/user.test.js&#45;&gt;assert -->
<g id="edge10" class="edge">
<title>app/tests/user.test.js&#45;&gt;assert</title>
<path fill="none" stroke="#000000" stroke-dasharray="5,2" stroke-opacity="0.200000" d="M84.3,-166.54C87.26,-164.84 89.93,-162.7 92,-160 105.43,-142.48 89.72,-82.83 100.86,-54.56"/>
<polygon fill="#000000" fill-opacity="0.200000" stroke="#000000" stroke-opacity="0.200000" points="103.17,-55.7 104.09,-49.41 99.45,-53.75 103.17,-55.7"/>
</g>
<!-- test -->
<g id="node11" class="node">
<title>test</title>
<g id="a_node11"><a xlink:title="test">
<path fill="#ffffcc" stroke="red" d="M148,-18C148,-18 106,-18 106,-18 103,-18 100,-15 100,-12 100,-12 100,-6 100,-6 100,-3 103,0 106,0 106,0 148,0 148,0 151,0 154,-3 154,-6 154,-6 154,-12 154,-12 154,-15 151,-18 148,-18"/>
<text text-anchor="middle" x="127" y="-6.8" font-family="Helvetica,sans-Serif" font-size="9.00" fill="red">test</text>
</a>
</g>
</g>
<!-- app/tests/user.test.js&#45;&gt;test -->
<g id="edge11" class="edge">
<title>app/tests/user.test.js&#45;&gt;test</title>
<path fill="none" stroke="#000000" stroke-width="2" stroke-opacity="0.200000" d="M84.34,-166.58C87.29,-164.87 89.95,-162.72 92,-160 108.87,-137.62 87.73,-62.19 101.09,-26.24"/>
<polygon fill="#000000" fill-opacity="0.200000" stroke="#000000" stroke-width="2" stroke-opacity="0.200000" points="103.2,-26.71 104,-20.4 99.44,-24.83 103.2,-26.71"/>
</g>
<!-- app/user/controller.js&#45;&gt;app/config.js -->
<g id="edge12" class="edge">
<title>app/user/controller.js&#45;&gt;app/config.js</title>
<path fill="none" stroke="#000000" stroke-width="2" stroke-opacity="0.200000" d="M327.22,-179.29C348.8,-178.03 378.16,-176.16 404,-174 405.27,-173.89 406.57,-173.78 407.87,-173.66"/>
<polygon fill="#000000" fill-opacity="0.200000" stroke="#000000" stroke-width="2" stroke-opacity="0.200000" points="407.8,-175.5 413.58,-172.85 407.41,-171.32 407.8,-175.5"/>
</g>
<!-- app/user/controller.js&#45;&gt;app/db&#45;client.js -->
<g id="edge13" class="edge">
<title>app/user/controller.js&#45;&gt;app/db&#45;client.js</title>
<path fill="none" stroke="#000000" stroke-width="2" stroke-opacity="0.200000" d="M325.06,-190.39C328.42,-191.57 331.8,-192.79 335,-194 337.65,-195 340.38,-196.08 343.11,-197.19"/>
<polygon fill="#000000" fill-opacity="0.200000" stroke="#000000" stroke-width="2" stroke-opacity="0.200000" points="342.86,-199.19 349.21,-199.56 344.47,-195.32 342.86,-199.19"/>
</g>
<!-- app/user/controller.js&#45;&gt;app/utils.js -->
<g id="edge14" class="edge">
<title>app/user/controller.js&#45;&gt;app/utils.js</title>
<path fill="none" stroke="#000000" stroke-width="2" stroke-opacity="0.200000" d="M327.12,-172.05C330.55,-171.06 334.07,-170.05 337.55,-169.05"/>
<polygon fill="#000000" fill-opacity="0.200000" stroke="#000000" stroke-width="2" stroke-opacity="0.200000" points="338.88,-170.28 344.07,-166.6 337.72,-166.24 338.88,-170.28"/>
</g>
<!-- app/utils.js&#45;&gt;app/config.js -->
<g id="edge18" class="edge">
<title>app/utils.js&#45;&gt;app/config.js</title>
<path fill="none" stroke="#000000" stroke-width="2" stroke-opacity="0.200000" d="M400.79,-163.22C403.18,-163.61 405.63,-164 408.08,-164.39"/>
<polygon fill="#000000" fill-opacity="0.200000" stroke="#000000" stroke-width="2" stroke-opacity="0.200000" points="408.64,-166.93 414.9,-165.81 409.3,-162.78 408.64,-166.93"/>
</g>
</g>
</svg>
